<?xml version="1.0" encoding="utf-8" ?>
<svg baseProfile="full" height="100%" version="1.1" viewBox="0,0,1000,120" width="100%" xmlns="http://www.w3.org/2000/svg" xmlns:ev="http://www.w3.org/2001/xml-events" xmlns:xlink="http://www.w3.org/1999/xlink"><defs /><rect fill="white" height="120" width="1000" x="0" y="0" /><path d="M0,0 M405.0797424316406,47.994632720947266 L405.09393310546875,47.901859283447266 L405.128173828125,47.95326232910156 L405.1787414550781,48.35932159423828 L405.22698974609375,49.3440055847168 L405.2257385253906,50.9540901184082 L405.12359619140625,53.115787506103516 L404.8969421386719,55.65646743774414 L404.5415954589844,58.36910629272461 L404.1063232421875,61.042179107666016 L403.6579895019531,63.51460266113281 L403.25213623046875,65.65380096435547 L402.9338684082031,67.31194305419922 L402.72711181640625,68.38800048828125 L402.61767578125,68.86087036132812 L402.5823974609375,68.91737365722656 L402.5837097167969,68.78802490234375 M403.4788818359375,47.560462951660156 L403.8500061035156,47.32463073730469 L404.5615539550781,46.99299621582031 L405.6258850097656,46.695716857910156 L406.9126892089844,46.62221908569336 L408.3075866699219,46.897186279296875 L409.6537170410156,47.607025146484375 L410.82147216796875,48.77315902709961 L411.6923522949219,50.38044738769531 L412.2115173339844,52.38500213623047 L412.3567199707031,54.686317443847656 L412.14776611328125,57.16482162475586 L411.6225280761719,59.681678771972656 L410.855712890625,62.084877014160156 L409.9128112792969,64.25923156738281 L408.8642578125,66.14374542236328 L407.7506103515625,67.69438934326172 L406.60919189453125,68.89275360107422 L405.4684143066406,69.72980499267578 L404.39404296875,70.19931030273438 L403.4642333984375,70.27088165283203 L402.7550354003906,69.97518157958984 L402.2884521484375,69.37464904785156 L402.0500793457031,68.74370574951172 L401.9638671875,68.2781982421875 M415.8389587402344,55.507930755615234 L415.8190612792969,55.744346618652344 L415.7513427734375,56.37110900878906 L415.6197204589844,57.51835250854492 L415.4127197265625,59.15692138671875 L415.1533203125,61.15228271484375 L414.8529357910156,63.299652099609375 L414.5147399902344,65.41020965576172 L414.1747131347656,67.32901000976562 L413.8838806152344,68.91902923583984 L413.6820068359375,70.0744857788086 L413.5856018066406,70.76078796386719 L413.5671081542969,71.05799865722656 M417.1302795410156,50.11531066894531 L417.16748046875,50.124244689941406 L417.2348937988281,50.20982360839844 L417.30780029296875,50.335227966308594 L417.3614196777344,50.46364212036133 M425.83929443359375,56.696529388427734 L425.8367614746094,56.400760650634766 L425.7948913574219,55.93138885498047 L425.6629333496094,55.37361145019531 L425.3756408691406,54.89701843261719 L424.88848876953125,54.61977005004883 L424.18536376953125,54.66309356689453 L423.29522705078125,55.14487075805664 L422.2945556640625,56.158447265625 L421.2941589355469,57.71403121948242 L420.42193603515625,59.69846725463867 L419.809814453125,61.88557052612305 L419.5436706542969,63.98373794555664 L419.63861083984375,65.72628021240234 L420.0437927246094,66.93608856201172 L420.6767272949219,67.53550720214844 L421.45513916015625,67.49563598632812 L422.32830810546875,66.8107681274414 L423.26336669921875,65.50807189941406 L424.2547607421875,63.690208435058594 L425.2879638671875,61.575462341308594 L426.33038330078125,59.477603912353516 L427.28033447265625,57.68143844604492 L428.0381774902344,56.339290618896484 L428.5195007324219,55.47295379638672 L428.7035217285156,55.043148040771484 L428.64276123046875,55.044883728027344 L428.3995666503906,55.56360626220703 L427.9994812011719,56.706764221191406 L427.49249267578125,58.46157455444336 L426.9242248535156,60.709964752197266 L426.32464599609375,63.270145416259766 L425.7492370605469,65.9665756225586 L425.2093811035156,68.6689224243164 L424.7076416015625,71.30217742919922 L424.2278137207031,73.76773071289062 L423.7611083984375,75.96780395507812 L423.28363037109375,77.80793762207031 L422.81591796875,79.22947692871094 L422.364990234375,80.20568084716797 L421.9437255859375,80.75151062011719 L421.52178955078125,80.89735412597656 L421.1072082519531,80.73068237304688 L420.70318603515625,80.36407470703125 L420.35113525390625,79.9279556274414 L420.0699157714844,79.53811645507812 L419.84942626953125,79.24555969238281 L419.6899108886719,79.06098175048828 L419.5964660644531,78.97174072265625 M430.9115295410156,54.949684143066406 L430.91265869140625,55.0308952331543 L430.8876953125,55.36606979370117 L430.82904052734375,56.113182067871094 L430.71295166015625,57.34049606323242 L430.5334777832031,58.9687385559082 L430.28662109375,60.83650207519531 L429.9643859863281,62.771366119384766 L429.5968933105469,64.60920715332031 L429.25238037109375,66.20111083984375 L428.9837951660156,67.43016052246094 L428.82647705078125,68.2012710571289 L428.7677307128906,68.56053161621094 M432.53692626953125,48.35993576049805 L432.52392578125,48.29077911376953 L432.4973449707031,48.205196380615234 L432.459228515625,48.13165283203125 L432.41998291015625,48.08177947998047 L432.3746032714844,48.02004623413086 L432.33453369140625,47.92424011230469 L432.2947692871094,47.792789459228516 L432.25823974609375,47.66059112548828 L432.23699951171875,47.57252883911133 L432.2462463378906,47.53754806518555 L432.2688903808594,47.53707504272461 L432.297119140625,47.54949188232422 M439.3154602050781,45.0 L439.271484375,45.166534423828125 L439.2001953125,45.64055252075195 L439.0826110839844,46.567359924316406 L438.88177490234375,48.0093994140625 L438.55792236328125,49.93545150756836 L438.12078857421875,52.24537658691406 L437.61370849609375,54.80241012573242 L437.1148376464844,57.47043228149414 L436.6830749511719,60.12526321411133 L436.3368835449219,62.63031768798828 L436.0786437988281,64.83367156982422 L435.9153747558594,66.5644760131836 L435.8302307128906,67.69772338867188 L435.8119201660156,68.22484588623047 L435.8289794921875,68.33518981933594 L435.85260009765625,68.25572967529297 M434.9061279296875,56.26991271972656 L435.0417175292969,56.25325012207031 L435.42236328125,56.201141357421875 L436.13812255859375,56.080135345458984 L437.2090759277344,55.85948181152344 L438.5733947753906,55.51774978637695 L440.1141662597656,55.073055267333984 L441.73583984375,54.57761001586914 L443.3348083496094,54.07954025268555 L444.78369140625,53.6232795715332 L445.98822021484375,53.23776626586914 L446.84881591796875,52.933692932128906 L447.2797546386719,52.741127014160156 L447.243896484375,52.712459564208984 L446.71221923828125,52.91860580444336 L445.685302734375,53.465309143066406 L444.2587890625,54.45744323730469 L442.59454345703125,55.94484329223633 L440.887939453125,57.877967834472656 L439.3682861328125,60.062355041503906 L438.20440673828125,62.17658615112305 L437.4903564453125,63.912479400634766 L437.25390625,65.07167053222656 L437.45635986328125,65.58903503417969 L438.0320739746094,65.48255157470703 L438.934814453125,64.77252197265625 L440.1112976074219,63.44878005981445 L441.4805603027344,61.59159851074219 L442.930419921875,59.43928909301758 L444.2915954589844,57.33110427856445 L445.417236328125,55.588504791259766 L446.19903564453125,54.425697326660156 L446.5992431640625,53.92730712890625 L446.65093994140625,54.12043380737305 L446.4355773925781,55.03246307373047 L446.0362854003906,56.63053512573242 L445.55517578125,58.75901794433594 L445.0724182128906,61.147178649902344 L444.65826416015625,63.47874450683594 L444.38189697265625,65.50220489501953 L444.30072021484375,67.00228118896484 L444.4085998535156,67.86920928955078 L444.6614990234375,68.10470581054688 L444.92669677734375,67.95845794677734 L445.1121520996094,67.69216918945312 M451.25189208984375,48.01476287841797 L451.2717590332031,48.01063537597656 L451.2850036621094,48.22386169433594 L451.25,48.862022399902344 L451.11248779296875,50.081825256347656 L450.8556213378906,51.87355041503906 L450.46502685546875,54.10478973388672 L449.98370361328125,56.57512664794922 L449.4787292480469,59.101646423339844 L449.00341796875,61.53962707519531 L448.58721923828125,63.76515197753906 L448.2520446777344,65.68568420410156 L448.00360107421875,67.17121887207031 L447.8635559082031,68.1174545288086 L447.84674072265625,68.50294494628906 L447.90411376953125,68.51451110839844 L447.97808837890625,68.36540985107422 M464.8397521972656,47.71442413330078 L464.9173278808594,47.90068054199219 L464.98382568359375,48.41044998168945 L464.974365234375,49.387474060058594 L464.8105163574219,50.879188537597656 L464.4884338378906,52.84596252441406 L464.02960205078125,55.190242767333984 L463.5076904296875,57.78413772583008 L462.9835205078125,60.48277282714844 L462.51568603515625,63.14860916137695 L462.13299560546875,65.63888549804688 L461.84814453125,67.83071899414062 L461.6681213378906,69.5848388671875 L461.5958557128906,70.78810119628906 L461.6220703125,71.39537048339844 L461.6936340332031,71.56085205078125 L461.763916015625,71.49678802490234 M471.8318786621094,49.2398681640625 L471.8671875,49.196250915527344 L471.88519287109375,49.327545166015625 L471.84063720703125,49.83428955078125 L471.6710205078125,50.879276275634766 L471.36749267578125,52.468318939208984 L470.9384460449219,54.51250076293945 L470.419921875,56.86831283569336 L469.8693542480469,59.38346862792969 L469.3617248535156,61.908199310302734 L468.93402099609375,64.2816390991211 L468.6329345703125,66.36345672607422 L468.45587158203125,68.00990295410156 L468.36737060546875,69.1301498413086 L468.31512451171875,69.70429992675781 L468.28363037109375,69.87895965576172 L468.25311279296875,69.84070587158203 M463.6588134765625,58.67481994628906 L463.9755859375,58.56539535522461 L464.75213623046875,58.33951187133789 L466.06732177734375,57.99131774902344 L467.8269958496094,57.55281448364258 L469.8312072753906,57.062870025634766 L471.9061279296875,56.57311248779297 L473.93157958984375,56.1241569519043 L475.8195495605469,55.73268127441406 L477.4615478515625,55.417964935302734 L478.7471618652344,55.182735443115234 L479.5675354003906,55.03395080566406 L479.8759765625,54.997371673583984 L479.6635437011719,55.12748336791992 L478.9221496582031,55.49287414550781 L477.68609619140625,56.19394302368164 L476.075439453125,57.30803298950195 L474.26568603515625,58.8563117980957 L472.50018310546875,60.76723861694336 L471.020263671875,62.84953308105469 L469.97760009765625,64.83765411376953 L469.4315185546875,66.48789978027344 L469.37188720703125,67.6275863647461 L469.7290954589844,68.17222595214844 L470.4422912597656,68.0892562866211 L471.4634094238281,67.3448486328125 L472.744873046875,65.96468353271484 L474.211669921875,64.07381439208984 L475.7567443847656,61.9016227722168 L477.2474670410156,59.73259353637695 L478.54705810546875,57.83289337158203 L479.54998779296875,56.33769989013672 L480.2262878417969,55.30498504638672 L480.5731201171875,54.76169204711914 L480.63092041015625,54.76527404785156 L480.4287414550781,55.39054870605469 L479.9971923828125,56.69792938232422 L479.393310546875,58.57830810546875 L478.71734619140625,60.789825439453125 L478.0882263183594,63.037044525146484 L477.64031982421875,65.06261444091797 L477.4244689941406,66.67914581298828 L477.4245300292969,67.83267974853516 L477.55682373046875,68.54485321044922 L477.7373046875,68.83706665039062 L477.9286193847656,68.77845764160156 L478.146240234375,68.44544219970703 L478.343505859375,68.03794860839844 L478.4922790527344,67.70926666259766 M483.9797668457031,54.8405647277832 L484.0218505859375,54.74662780761719 L484.0738220214844,54.64191436767578 L484.103515625,54.63923645019531 L484.0699768066406,54.920372009277344 L483.95184326171875,55.65330505371094 L483.71466064453125,56.90743637084961 L483.35345458984375,58.64189910888672 L482.90020751953125,60.717323303222656 L482.40032958984375,62.925941467285156 L481.92486572265625,65.03235626220703 L481.53839111328125,66.83934020996094 L481.2840576171875,68.2208251953125 L481.1687927246094,69.1253890991211 L481.18450927734375,69.54570007324219 L481.31134033203125,69.43437957763672 L481.5755615234375,68.67564392089844 L482.0367431640625,67.20447540283203 L482.7815856933594,65.12767028808594 L483.8438720703125,62.71549987792969 L485.188232421875,60.340049743652344 L486.6905822753906,58.30537033081055 L488.19488525390625,56.764217376708984 L489.54443359375,55.77669906616211 L490.62603759765625,55.37827682495117 L491.3706359863281,55.60147476196289 L491.76690673828125,56.48395919799805 L491.826416015625,57.997344970703125 L491.60467529296875,59.99717712402344 L491.1934509277344,62.25559616088867 L490.710205078125,64.51371002197266 L490.27191162109375,66.5499267578125 L489.9854431152344,68.16626739501953 L489.8929443359375,69.24527740478516 L489.9909973144531,69.75064849853516 L490.165283203125,69.84626007080078 L490.3211364746094,69.74478912353516 M499.25335693359375,57.560089111328125 L499.3267517089844,57.26076126098633 L499.3711853027344,56.83164596557617 L499.31060791015625,56.378578186035156 L499.06829833984375,56.07109069824219 L498.6191101074219,55.9804801940918 L497.9435729980469,56.20709991455078 L497.05743408203125,56.8336296081543 L495.9983215332031,57.941123962402344 L494.8475341796875,59.532249450683594 L493.7350769042969,61.50794219970703 L492.7822265625,63.645938873291016 L492.0921936035156,65.68338775634766 L491.7345886230469,67.36797332763672 L491.74078369140625,68.51850891113281 L492.09259033203125,69.0186767578125 L492.7769775390625,68.81884002685547 L493.7535400390625,67.87874603271484 L494.951904296875,66.2286605834961 L496.2829895019531,64.01482391357422 L497.6487121582031,61.4884147644043 L498.94256591796875,58.91700744628906 L500.10308837890625,56.562503814697266 L501.0736083984375,54.60398864746094 L501.8153076171875,53.11595916748047 L502.30877685546875,52.127685546875 L502.5372619628906,51.661842346191406 L502.5035400390625,51.75453186035156 L502.20941162109375,52.50077438354492 L501.6505126953125,53.990478515625 L500.8814392089844,56.16409683227539 L500.0030212402344,58.827178955078125 L499.1370544433594,61.689205169677734 L498.4165954589844,64.42891693115234 L497.9259338378906,66.78764343261719 L497.67633056640625,68.6247787475586 L497.6690368652344,69.84420776367188 L497.8707275390625,70.46588897705078 L498.2240295410156,70.60548400878906 L498.57757568359375,70.49437713623047 L498.83489990234375,70.32756805419922 M505.1773376464844,57.272151947021484 L505.32550048828125,57.06516647338867 L505.48583984375,56.89375686645508 L505.55279541015625,56.99919509887695 L505.3947448730469,57.68423843383789 L504.99285888671875,59.09358215332031 L504.38885498046875,61.15824890136719 L503.71295166015625,63.58267593383789 L503.1010437011719,65.96609497070312 L502.6774597167969,67.9450454711914 L502.51177978515625,69.31889343261719 L502.625732421875,70.039306640625 L503.005126953125,70.11859893798828 L503.64501953125,69.52952575683594 L504.516357421875,68.23210906982422 L505.5680236816406,66.34744262695312 L506.6932373046875,64.20130157470703 L507.7369689941406,62.18818664550781 L508.5687255859375,60.65883255004883 L509.1298828125,59.7967643737793 L509.41571044921875,59.63867950439453 L509.5032653808594,60.193729400634766 L509.459228515625,61.4682502746582 L509.3411865234375,63.3100471496582 L509.21240234375,65.41444396972656 L509.13568115234375,67.39753723144531 L509.1489562988281,68.95401000976562 L509.2890625,69.94644165039062 L509.5492858886719,70.39932250976562 L509.92724609375,70.33203125 L510.40625,69.69747161865234 L510.97357177734375,68.44601440429688 L511.6244812011719,66.65853881835938 L512.3331298828125,64.54276275634766 L513.060302734375,62.377479553222656 L513.7601928710938,60.39647674560547 L514.3764038085938,58.7220344543457 L514.876953125,57.413414001464844 L515.2630004882812,56.501277923583984 L515.52587890625,55.97148132324219 L515.6985473632812,55.76567459106445 L515.814453125,55.782958984375 L515.92138671875,55.917301177978516 L516.018310546875,56.06428527832031 L516.098388671875,56.16884231567383 M520.3145751953125,56.38754653930664 L520.345458984375,56.34003448486328 L520.3704223632812,56.363616943359375 L520.3360595703125,56.614662170410156 L520.1736450195312,57.275367736816406 L519.828125,58.45855712890625 L519.3134155273438,60.1453971862793 L518.6815185546875,62.20851516723633 L518.02783203125,64.4625473022461 L517.454833984375,66.67848205566406 L517.0332641601562,68.6192626953125 L516.7749633789062,70.12248229980469 L516.6638793945312,71.11054229736328 L516.6548461914062,71.56111907958984 L516.7281494140625,71.4798812866211 L516.9307861328125,70.834716796875 L517.3331298828125,69.56790924072266 L518.006591796875,67.75942993164062 L519.0008544921875,65.6358642578125 L520.290283203125,63.465370178222656 L521.791015625,61.50050354003906 L523.40185546875,59.92251968383789 L524.9740600585938,58.78194808959961 L526.3602294921875,58.12397003173828 L527.423583984375,58.006683349609375 L528.055419921875,58.48075485229492 L528.2095947265625,59.577640533447266 L527.9331665039062,61.2834587097168 L527.3348388671875,63.44536590576172 L526.5850219726562,65.81723022460938 L525.8533325195312,68.09319305419922 L525.2710571289062,70.0260238647461 L524.9151000976562,71.36654663085938 L524.80029296875,72.0059814453125 L524.8815307617188,71.96685791015625 L525.0390625,71.58470916748047 L525.1795043945312,71.16510772705078 M530.6284790039062,53.14064407348633 L530.642578125,53.05902099609375 L530.6755981445312,52.95537185668945 L530.714599609375,52.86368942260742 L530.7467651367188,52.817955017089844 M537.7354125976562,49.716129302978516 L537.7330932617188,49.76616668701172 L537.6580200195312,50.01938247680664 L537.4387817382812,50.632659912109375 L537.0175170898438,51.725250244140625 L536.3765869140625,53.315574645996094 L535.54638671875,55.37163162231445 L534.62109375,57.80194091796875 L533.70703125,60.47772979736328 L532.907958984375,63.24654006958008 L532.3068237304688,65.9395751953125 L531.9218139648438,68.3724594116211 L531.74072265625,70.3410415649414 L531.7348022460938,71.68472290039062 L531.8403930664062,72.35232543945312 L531.968505859375,72.52033233642578 L532.0671997070312,72.44239044189453 M531.3404541015625,61.175052642822266 L531.5982666015625,60.907569885253906 L532.1805419921875,60.42625045776367 L533.1699829101562,59.758914947509766 L534.5342407226562,58.995452880859375 L536.1888427734375,58.19429016113281 L537.9835815429688,57.44691467285156 L539.7100830078125,56.823795318603516 L541.18212890625,56.39963912963867 L542.2711181640625,56.2596321105957 L542.9146118164062,56.473045349121094 L543.1235961914062,57.13176727294922 L542.94873046875,58.32042694091797 L542.4445190429688,60.03966522216797 L541.7125244140625,62.186622619628906 L540.8866577148438,64.56403350830078 L540.1162109375,66.92443084716797 L539.5132446289062,69.02732849121094 L539.1279296875,70.72499084472656 L538.955322265625,71.87915802001953 L538.9471435546875,72.43222045898438 L539.0387573242188,72.4208755493164 L539.153076171875,72.1253662109375 L539.238037109375,71.79023742675781 M543.9061889648438,53.19352340698242 L543.9656372070312,53.1423225402832 L544.0694580078125,53.082008361816406 L544.1963500976562,53.036895751953125 L544.3080444335938,53.01658630371094 L544.3767700195312,52.997955322265625 L544.3988037109375,52.95235061645508 L544.3917236328125,52.88970947265625 L544.378173828125,52.83316421508789 M546.30419921875,55.705078125 L546.3641967773438,55.69465255737305 L546.4332275390625,55.77818298339844 L546.46923828125,56.094600677490234 L546.3973388671875,56.796627044677734 L546.1681518554688,57.98610305786133 L545.7650756835938,59.66551971435547 L545.2070922851562,61.74643325805664 L544.55078125,64.04925537109375 L543.908447265625,66.34701538085938 L543.3773193359375,68.38833618164062 L543.0234985351562,70.00375366210938 L542.8544921875,71.07859802246094 L542.8419799804688,71.55984497070312 L542.9540405273438,71.41085052490234 L543.2202758789062,70.59019470214844 L543.69921875,69.07073211669922 L544.4642333984375,66.9901351928711 L545.5520629882812,64.59526062011719 L546.9406127929688,62.2018928527832 L548.5335693359375,60.10358810424805 L550.196044921875,58.52244567871094 L551.7548828125,57.58688735961914 L553.0416870117188,57.39651107788086 L553.9268798828125,58.005645751953125 L554.3272094726562,59.38887405395508 L554.2446899414062,61.41070556640625 L553.776611328125,63.8228645324707 L553.09619140625,66.29550170898438 L552.396240234375,68.49516296386719 L551.846435546875,70.20774841308594 L551.5181884765625,71.28575897216797 L551.383056640625,71.80522155761719 M560.5044555664062,60.609432220458984 L560.7144165039062,60.07192611694336 L561.005615234375,59.30143356323242 L561.2761840820312,58.476280212402344 L561.3675537109375,57.858680725097656 L561.2061157226562,57.5186882019043 L560.7490234375,57.51597213745117 L560.013427734375,57.909000396728516 L559.0859375,58.81532287597656 L558.0997314453125,60.24895095825195 L557.212158203125,62.08414077758789 L556.5692138671875,64.0714111328125 L556.2391357421875,65.92323303222656 L556.2304077148438,67.41735076904297 L556.503173828125,68.45661163330078 L556.99072265625,69.01421356201172 L557.65283203125,69.07809448242188 L558.471923828125,68.60414123535156 L559.4144287109375,67.55650329589844 L560.4517822265625,65.99143981933594 L561.5093383789062,64.12713623046875 L562.4912719726562,62.310546875 L563.3079223632812,60.84849166870117 L563.9002685546875,59.88416290283203 L564.237548828125,59.39914321899414 L564.3471069335938,59.32089614868164 L564.2550048828125,59.657989501953125 L563.9910888671875,60.53083038330078 L563.56591796875,62.01470184326172 L563.0101318359375,64.06023406982422 L562.3525390625,66.51042175292969 L561.649169921875,69.17750549316406 L560.940673828125,71.91259765625 L560.2506103515625,74.6273422241211 L559.5668334960938,77.2303695678711 L558.8739013671875,79.6259994506836 L558.142333984375,81.72769165039062 L557.3494873046875,83.48885345458984 L556.477294921875,84.90220642089844 L555.5098876953125,85.98988342285156 L554.443359375,86.78408813476562 L553.29052734375,87.30989074707031 L552.0908203125,87.57898712158203 L550.9050903320312,87.6141128540039 L549.7981567382812,87.44523620605469 L548.8389892578125,87.13771057128906 L548.086181640625,86.79266357421875 L547.55712890625,86.49852752685547 L547.2939453125,86.30144500732422 L547.3090209960938,86.2071304321289 L547.565673828125,86.15916442871094 L547.8985595703125,86.12734985351562 L548.173095703125,86.10232543945312 M575.902587890625,46.21835708618164 L575.9004516601562,46.202213287353516 L575.9210205078125,46.22233200073242 L575.9602661132812,46.35863494873047 L576.0075073242188,46.714019775390625 L576.01025390625,47.3687744140625 L575.9693603515625,48.342838287353516 L575.8670654296875,49.591976165771484 L575.6917724609375,51.01830291748047 L575.4222412109375,52.494972229003906 L575.0662841796875,53.87383270263672 L574.6605224609375,55.01760482788086 L574.2802734375,55.83796691894531 L573.9947509765625,56.341331481933594 L573.8457641601562,56.602603912353516 L573.802978515625,56.729759216308594 L573.8192138671875,56.80023193359375 L573.8552856445312,56.84620666503906 L573.8724975585938,56.86980438232422 L573.8876342773438,56.88603591918945 L573.918212890625,56.894622802734375 L573.9471435546875,56.90376281738281 L573.9647216796875,56.918121337890625 L573.9599609375,56.93227005004883 L573.9232788085938,56.943668365478516 L573.8870849609375,56.95621109008789 L573.8751220703125,56.95851135253906 L573.8812866210938,56.95439529418945 L573.8989868164062,56.94891357421875 M579.6801147460938,53.40156173706055 L579.713134765625,53.32516098022461 L579.7792358398438,53.22364044189453 L579.8566284179688,53.15660095214844 L579.90185546875,53.22235870361328 L579.8446044921875,53.50532531738281 L579.674072265625,54.082664489746094 L579.4161987304688,54.96449661254883 L579.11669921875,56.11372375488281 L578.831298828125,57.45470428466797 L578.6038818359375,58.89792251586914 L578.4383544921875,60.367671966552734 L578.3419799804688,61.807029724121094 L578.3359985351562,63.15100860595703 L578.434814453125,64.36216735839844 L578.634033203125,65.39861297607422 L578.8825073242188,66.24708557128906 L579.0967407226562,66.90695190429688 L579.2014770507812,67.39088439941406 L579.2111206054688,67.69046783447266 L579.1727905273438,67.84228515625 M574.99169921875,79.74697875976562 L574.94873046875,79.69841766357422 L574.8864135742188,79.59042358398438 L574.7968139648438,79.4256591796875 L574.74609375,79.1976547241211 L574.783203125,78.89643859863281 L574.9556274414062,78.51387023925781 L575.1842651367188,78.1529769897461 L575.3887939453125,77.88819885253906 M584.033203125,54.244529724121094 L584.0588989257812,54.13930130004883 L584.0879516601562,54.00823211669922 L584.0968627929688,53.95841979980469 L584.0568237304688,54.14338684082031 L583.9312133789062,54.677734375 L583.698486328125,55.596519470214844 L583.3402099609375,56.80366516113281 L582.8734130859375,58.17885971069336 L582.33935546875,59.57058334350586 L581.8145751953125,60.854087829589844 L581.3724975585938,61.958152770996094 L581.0881958007812,62.854618072509766 L580.9843139648438,63.53804397583008 L581.052490234375,64.04505920410156 L581.1900634765625,64.36897277832031 L581.3138427734375,64.53733825683594 M587.33740234375,53.271053314208984 L587.3873291015625,53.20369338989258 L587.48876953125,53.15134048461914 L587.6146240234375,53.185791015625 L587.7052612304688,53.38825988769531 L587.6837768554688,53.78330993652344 L587.5143432617188,54.35862731933594 L587.20068359375,55.06791687011719 L586.7982788085938,55.892520904541016 L586.364013671875,56.80559158325195 L585.9568481445312,57.789306640625 L585.6080322265625,58.818538665771484 L585.322998046875,59.84914779663086 L585.078369140625,60.824588775634766 L584.8751831054688,61.72003936767578 L584.7053833007812,62.50865173339844 L584.5692138671875,63.18895721435547 L584.4713134765625,63.774810791015625 L584.409423828125,64.28079223632812 L584.3875732421875,64.71968841552734 L584.4081420898438,65.09637451171875 L584.462646484375,65.39936065673828 L584.5281372070312,65.62064361572266 L584.5759887695312,65.74840545654297 L584.586669921875,65.79051971435547 L584.569091796875,65.77899932861328 L584.5264282226562,65.7449951171875 L584.468505859375,65.70933532714844 L584.4114379882812,65.69039916992188 L584.362060546875,65.6792984008789 L584.327392578125,65.6697998046875 L584.30859375,65.6582260131836 L584.3014526367188,65.64461517333984 L584.2938232421875,65.63065338134766 L584.2843017578125,65.62623596191406 L584.27783203125,65.63409423828125 L584.2750244140625,65.65047454833984 L584.266845703125,65.68032836914062 L584.2528076171875,65.71732330322266 L584.2304077148438,65.76522064208984 L584.206787109375,65.81497955322266 L584.197509765625,65.85848236083984 L584.2071533203125,65.88343048095703 L584.2206420898438,65.90892791748047 L584.22607421875,65.93753051757812 L584.2135620117188,65.98866271972656 L584.1865844726562,66.05219268798828 L584.157958984375,66.11228942871094 L584.1431884765625,66.14581298828125 L584.1445922851562,66.15182495117188 L584.155517578125,66.13589477539062 L584.16650390625,66.1187973022461 L584.172607421875,66.10855102539062 M586.5669555664062,51.06227111816406 L586.551513671875,50.99851608276367 L586.5491333007812,50.92178726196289 L586.55810546875,50.89532470703125 L586.5721435546875,51.04319763183594 L586.541259765625,51.48285675048828 L586.440673828125,52.32445526123047 L586.2540893554688,53.56355667114258 L585.9942626953125,55.11283493041992 L585.6804809570312,56.84169006347656 L585.3507080078125,58.634464263916016 L585.0310668945312,60.40785598754883 L584.7581787109375,62.084495544433594 L584.5428466796875,63.54958724975586 L584.3915405273438,64.70368957519531 L584.29052734375,65.49755096435547 L584.2265014648438,65.94939422607422 L584.1798706054688,66.15127563476562 L584.1459350585938,66.20220947265625 L584.1201171875,66.1875991821289 L584.10498046875,66.16386413574219 M589.1021728515625,46.24949645996094 L589.0150756835938,46.37047576904297 L588.8680419921875,46.66342544555664 L588.6668090820312,47.214778900146484 L588.423828125,48.07460403442383 L588.125244140625,49.259361267089844 L587.775634765625,50.71261215209961 L587.3997802734375,52.33353042602539 L587.044921875,53.99773406982422 L586.75146484375,55.569278717041016 L586.527587890625,56.924232482910156 L586.3521728515625,57.95564270019531 L586.2030029296875,58.633216857910156 L586.0916748046875,58.98566436767578 L586.0531616210938,59.07310104370117 L586.1202392578125,58.91072082519531 L586.3389282226562,58.486717224121094 L586.7369384765625,57.76681137084961 L587.3287963867188,56.817752838134766 L588.1116943359375,55.75143051147461 L589.0528564453125,54.69743347167969 L590.0787353515625,53.7618522644043 L591.1533813476562,53.02724838256836 L592.2365112304688,52.53154754638672 L593.295654296875,52.314552307128906 L594.280029296875,52.391456604003906 L595.1295166015625,52.75351333618164 L595.7703247070312,53.40626525878906 L596.1656494140625,54.34790802001953 L596.2860717773438,55.5516357421875 L596.156494140625,56.954200744628906 L595.843017578125,58.455142974853516 L595.4542846679688,59.95036315917969 L595.1041870117188,61.373291015625 L594.8893432617188,62.68123245239258 L594.8572998046875,63.857276916503906 L595.028564453125,64.89195251464844 L595.4073486328125,65.76081085205078 L595.9957275390625,66.44479370117188 L596.77734375,66.93924713134766 L597.7618408203125,67.23545837402344 L598.906005859375,67.34204864501953 L600.1166381835938,67.284423828125 L601.1102294921875,67.15553283691406 L601.7390747070312,67.03337097167969 M595.942626953125,69.8327407836914 L595.8139038085938,69.82984924316406 L595.6705322265625,69.79142761230469 L595.5571899414062,69.73521423339844 L595.5184326171875,69.67893981933594 M603.8076782226562,45.1165771484375 L603.8440551757812,45.41593933105469 L603.886962890625,46.04934310913086 L603.8948364257812,47.07691192626953 L603.799560546875,48.4084358215332 L603.5462036132812,49.92844772338867 L603.1432495117188,51.51783752441406 L602.6370849609375,53.06971740722656 L602.1163940429688,54.48200607299805 L601.6746826171875,55.679195404052734 L601.3655395507812,56.5733528137207 L601.1881713867188,57.13373565673828 L601.14013671875,57.361289978027344 L601.18017578125,57.309329986572266 L601.2887573242188,57.0470085144043 L601.4098510742188,56.74104309082031 L601.50537109375,56.504459381103516 M606.1527099609375,49.00164794921875 L606.1358642578125,48.98716735839844 L606.0916137695312,49.04496765136719 L606.0001220703125,49.27382278442383 L605.8316650390625,49.78218078613281 L605.5549926757812,50.6163215637207 L605.1810302734375,51.77862548828125 L604.7357177734375,53.19077682495117 L604.2822265625,54.751522064208984 L603.9057006835938,56.36526107788086 L603.6593017578125,57.94694519042969 L603.5594482421875,59.40736389160156 L603.56884765625,60.65983963012695 L603.6236572265625,61.614383697509766 L603.65966796875,62.23476791381836 L603.6624755859375,62.55225372314453 L603.648193359375,62.60618209838867 L603.661376953125,62.41214370727539 L603.7481689453125,61.92972183227539 L603.96533203125,61.107421875 L604.3442993164062,59.94883728027344 L604.89697265625,58.54080581665039 L605.5944213867188,57.00999069213867 L606.3740234375,55.497432708740234 L607.1856079101562,54.10430145263672 L608.008544921875,52.885704040527344 L608.8388671875,51.87018585205078 L609.6835327148438,51.07577896118164 L610.54052734375,50.537654876708984 L611.3907470703125,50.29386520385742 L612.072265625,50.26299285888672 L612.5065307617188,50.33699035644531 " fill="none" stroke="black" stroke-linecap="round" stroke-width="2" /></svg>